PathFileType	4	(X/Y/Z)	pose_F01_0-60.trc
DataRate	CameraRate	NumFrames	NumMarkers	Units	OrigDataRate	OrigDataStartFrame	OrigNumFrames
30	30	7	21	m	30	20	60
Frame#	Time	CHip			RHip			RKnee			RAnkle			RBigToe			RSmallToe			RHeel			LHip			LKnee			LAnkle			LBigToe			LSmallToe			LHeel			Neck			Nose			RShoulder			RElbow			RWrist			LShoulder			LElbow			LWrist			
		X1	Y1	Z1	X2	Y2	Z2	X3	Y3	Z3	X4	Y4	Z4	X5	Y5	Z5	X6	Y6	Z6	X7	Y7	Z7	X8	Y8	Z8	X9	Y9	Z9	X10	Y10	Z10	X11	Y11	Z11	X12	Y12	Z12	X13	Y13	Z13	X14	Y14	Z14	X15	Y15	Z15	X16	Y16	Z16	X17	Y17	Z17	X18	Y18	Z18	X19	Y19	Z19	X20	Y20	Z20	X21	Y21	Z21	
20	0.6666666666666666	-0.14903871693660836	1.8327055386600077	-0.6021076367005425	-0.167623392138817	1.8305271308765876	-0.5298689229810974	-0.1874190987379456	1.7049852140188926	-0.505064265080056	-0.16594711881468682	1.5903167925497497	-0.524977902610265	-0.19931361039125536	1.5517421086372913	-0.49801653594227596	-0.18196402503514378	1.5510941417827961	-0.48422239061657135	-0.15793481790491876	1.5873015170066935	-0.5428388646968442	-0.13106773823192194	1.8360350987709677	-0.6723109542481019	-0.1351003738193709	1.7003669477637215	-0.6475372250718362	-0.13970145662162967	1.553891523578658	-0.627163415271322	-0.17731408063555448	1.5188594563036326	-0.5920729377497199	-0.3220232722500999	1.4455333716344791	-1.1955977524118861	-0.13301159181845795	1.5419391868919923	-0.6192342640754368	-0.14855254719889663	1.9934547675801124	-0.6187215005318368	-0.17021261175031224	2.0545857811048145	-0.6029767496428666	-0.17223052873793773	1.9869300801945446	-0.5172274204960355	-0.1888925985827322	1.9055174475100978	-0.46341277832436445	-0.2248340593621799	1.9024218294750188	-0.45835244017208565	-0.12390024594664746	1.998970967177572	-0.7177225220118182	-0.10154239708612854	1.9226885148612596	-0.7601163280772889	-0.2270065785720799	1.9112366972827899	-0.6696166660362215
21	0.7	-0.14930543779374286	1.8327041335877934	-0.6020652720095557	-0.16780857234785226	1.8292197129952772	-0.5296783096957421	-0.1838606883054569	1.6986456387549478	-0.5080506115153082	-0.1576939589921137	1.5782638263013777	-0.5311526237508106	-0.18882391508457033	1.5433732246383525	-0.5028381586643476	-0.18196402503514378	1.5510941417827961	-0.48422239061657135	-0.14927082249703977	1.5712987199062014	-0.548430508658188	-0.1302649987077415	1.8359867499161537	-0.6691946504693504	-0.13528172965630486	1.6992861870081801	-0.6471768195014631	-0.13924066018587836	1.5549210809339062	-0.6278117083844883	-0.17582374850475951	1.5183762269131453	-0.5896934637675431	-0.3241664044711713	1.4455353344062476	-1.1909366233352277	-0.13001692235276704	1.5449987147619855	-0.6189884110383238	-0.14640088781725252	1.9935735508504815	-0.6211303460035821	-0.16809132667995602	2.0557502735760322	-0.6050554421288804	-0.16612977823724503	1.9881723822958128	-0.5240371987238094	-0.17728078382678242	1.9025582364228932	-0.4767211136613092	-0.2248340593621799	1.9024218294750188	-0.45835244017208565	-0.12179171394478988	1.9989389228748413	-0.7200399465030336	-0.10109981073994954	1.9180031057259417	-0.7567691568437274	-0.2270065785720799	1.9112366972827899	-0.6696166660362215
22	0.7333333333333333	-0.14924070007105517	1.8300731621609894	-0.6019475531537872	-0.1638457266554038	1.8280972786289351	-0.5342089688281674	-0.1708480812412083	1.690304667572312	-0.5210849635455801	-0.15420127267592618	1.565352934980677	-0.531751246548032	-0.18965654063181725	1.5312383286770523	-0.4988009466037479	-0.18278186842984334	1.5389482868917037	-0.48026911689906926	-0.15241393173234608	1.55521808131736	-0.5406627427313572	-0.12924660262451532	1.8336119274014757	-0.6743254773521584	-0.13357671430177068	1.696628016070337	-0.6486614675058625	-0.13963219906698546	1.5569617654450485	-0.6277225143114774	-0.1792965610481582	1.5180484057229615	-0.5899888247415821	-0.32279040467727926	1.4462437051198638	-1.1987407726423147	-0.1311658910205182	1.5442891787907058	-0.6213237337870423	-0.14410230324300524	1.9947778464545245	-0.6234840273768371	-0.1648521141038741	2.0549889909990693	-0.6126886500204076	-0.16194855322692808	1.9894279532683288	-0.5286228028165152	-0.17608689169859443	1.9047894057218466	-0.47390132342636127	-0.2248340593621799	1.9024218294750188	-0.45835244017208565	-0.11948636239839054	1.9989261942709293	-0.7224208009757354	-0.10645616463014212	1.9189735585519188	-0.7551326054721421	-0.2270065785720799	1.9112366972827899	-0.6696166660362215
23	0.7666666666666667	-0.14760448224896816	1.826450424321561	-0.6035446809713669	-0.16013240633184925	1.823183820822994	-0.5377672387586856	-0.16636687996910893	1.691616773301831	-0.5261596180560887	-0.15282815517129464	1.5613342120896612	-0.5322101264520063	-0.1907601615953997	1.5257536018802456	-0.4961811272205513	-0.18404749089347797	1.5311754365129795	-0.4772264456714808	-0.1507640318287075	1.5516903992705966	-0.5418793089742021	-0.12728878019484552	1.829797077476883	-0.6760548810192679	-0.14004052722784963	1.6946106802101923	-0.641624856169904	-0.13797414436193584	1.5538765193254525	-0.6286503878163349	-0.17722104281887543	1.5182979057347379	-0.5920853804508834	-0.32275840478555656	1.4459284282921445	-1.1988615585289797	-0.12888130171562823	1.5411364854502305	-0.62290000063041	-0.1442115324681786	1.9936023710696988	-0.6235886258961464	-0.1648526158286632	2.055009198258354	-0.6128179996289498	-0.1620425084917311	1.9883291575640685	-0.5286258617446553	-0.17529217964033983	1.9052305622417394	-0.47943423179338673	-0.2248340593621799	1.9024218294750188	-0.45835244017208565	-0.12034410867750295	1.9979957561326356	-0.7254918695306499	-0.10143773209835275	1.915187375581282	-0.7565167576120844	-0.2270065785720799	1.9112366972827899	-0.6696166660362215
24	0.8	-0.1477975357209957	1.8277341128174114	-0.6038194721052232	-0.16338258219890925	1.8233078094304567	-0.5387398195020654	-0.16924700761301428	1.687863695664243	-0.5226095363146895	-0.15508624359119366	1.5599792800136756	-0.5294166276000324	-0.1910583222994682	1.524450834458204	-0.4954258740450927	-0.18652478961239055	1.5313845301606677	-0.47411091512249337	-0.15083887601026866	1.5517814928102323	-0.5418108945069516	-0.1284755249525382	1.8312451057817765	-0.679340577477715	-0.14477806987386965	1.6940395038963036	-0.6364459525033764	-0.14006950353504027	1.55377093669423	-0.6264353604519185	-0.17766027102352225	1.5178201883583327	-0.5914225161916539	-0.3219479749674981	1.44581920669372	-1.1956152368394244	-0.13096709788774277	1.5408197492091933	-0.6207419362605953	-0.142284216468562	1.9925744903325409	-0.625826536828313	-0.1669001610813187	2.056266936269442	-0.6112167045091078	-0.1640713445206713	1.9882771334223253	-0.5265153726097299	-0.17731054541353397	1.9051354526567794	-0.47710153331145194	-0.2248340593621799	1.9024218294750188	-0.45835244017208565	-0.11737339804524093	1.9980065420127837	-0.7248343917557906	-0.09070585767349307	1.9171543965496312	-0.7719088642030321	-0.2270065785720799	1.9112366972827899	-0.6696166660362215
25	0.8333333333333334	-0.14897068739639574	1.827841893278953	-0.6068115402190627	-0.16640309508773934	1.8246387810588425	-0.5399167137532812	-0.17612852379204078	1.6915608052178552	-0.5198083341912278	-0.15670712389224764	1.562433589949813	-0.5283572119519258	-0.19408154878676667	1.524287239626333	-0.49668967262971375	-0.18741917188143506	1.5300207758856874	-0.4776913795888388	-0.15260721608810307	1.5500449030416472	-0.5397563234966487	-0.13108782139132324	1.8300327230704945	-0.6767681782411863	-0.1477259214881487	1.6936816133817996	-0.6373625026280505	-0.1398614616407317	1.5520679078961175	-0.6266219591621648	-0.1793723722617694	1.5153109178756652	-0.589569537788379	-0.3220449478881064	1.4455933665089227	-1.1955604473338466	-0.13062738961691506	1.5382821969490044	-0.621138652478144	-0.14216626010730332	1.9925722058389763	-0.6259703060726705	-0.16776293615948396	2.057684437843017	-0.6147107486061216	-0.1620324064660705	1.9883014490587096	-0.5287084265694113	-0.17895687691515563	1.9060698927865196	-0.47487980051504897	-0.2248340593621799	1.9024218294750188	-0.45835244017208565	-0.11307775151949663	1.9969159590605505	-0.729582406438068	-0.08852749782628352	1.9158178788913374	-0.7741906921918245	-0.2270065785720799	1.9112366972827899	-0.6696166660362215
26	0.8666666666666667	-0.1507116376572765	1.82635933032317	-0.6044319527278745	-0.16812656099629256	1.8230578397444248	-0.5374919022955323	-0.1787306588811798	1.694995553356126	-0.5133204485273043	-0.15833475381064444	1.5678620140333908	-0.5277205680333946	-0.19203813553080554	1.5296097400707076	-0.4958444544940369	-0.18705978183456098	1.5370996243122927	-0.4751339910514826	-0.15340505943096902	1.5572135004125718	-0.5444078709978992	-0.13276338040460756	1.8299252880766277	-0.6746149903603941	-0.14860501319831387	1.696367513990421	-0.6327565840968551	-0.13998877962525352	1.5556872438410605	-0.6269777650205132	-0.17724017853033555	1.5182195753964067	-0.5920809336271042	-0.3228299543975327	1.4457860485529426	-1.198779299602836	-0.13088033721978296	1.5428928400064055	-0.6212591570244156	-0.14220890128744232	1.9925208262133358	-0.6259815566088859	-0.16782120158299385	2.0590056074613114	-0.6152707793143269	-0.16303012873714268	1.9886549688925519	-0.5323740048653905	-0.1772636905441279	1.9051227736632057	-0.47736625315962083	-0.2248340593621799	1.9024218294750188	-0.45835244017208565	-0.11529642583531076	1.9968039641369861	-0.7271509071642707	-0.09335744469758858	1.914378212987513	-0.7691468029915277	-0.2270065785720799	1.9112366972827899	-0.6696166660362215
